<svg id="Layer_1" data-name="Layer 1" xmlns="http://www.w3.org/2000/svg" viewBox="0 0 125.27 143.6"><defs><style>.cls-1{fill:#fff;}</style></defs><title>if</title><path class="cls-1" d="M57.61,110.82c0-7.8,0-8.8-5.4-12.4l-1.8-1.2c-.8-.8-.8-3,.2-3.6,4.6-1.6,16-6.8,20.6-9.8a1.85,1.85,0,0,1,2,1.2c-.4,7-.8,16.6-.8,24.8v36c0,14.4.4,16.4,7.6,17.4l4.2.6c1.4,1,1,4.4-.4,5-6-.4-11.8-.6-18.8-.6-7.2,0-13.2.2-18.8.6-1.4-.6-1.8-4-.4-5l4.2-.6c7.4-1,7.6-3,7.6-17.4Zm16.6-57c0,7.2-5,10.4-10.6,10.4a9.83,9.83,0,0,1-10.2-10,10.4,10.4,0,0,1,10.8-10.8C70.21,43.42,74.21,48.22,74.21,53.82Z" transform="translate(-44.94 -25.22)"/><path class="cls-1" d="M126.61,97.82c-3.4,0-3.4.4-3.4,5.8v42.2c0,14.4.4,16.8,7.6,17.4l7.2.6c1.4,1,1,4.4-.4,5-9-.4-14.8-.6-21.8-.6-7.2,0-13.2.2-19.2.6-1.4-.6-1.8-4-.4-5l4.6-.6c7.4-1,7.6-3,7.6-17.4v-42.2c0-5.4,0-5.8-4-5.8h-7a2.8,2.8,0,0,1-.6-3.8l8.6-4.2c1.6-.8,3-2,3-4,0-11.6,1.4-24,6.2-35.2,5-11.4,16.2-25.4,36-25.4,10.6,0,19.6,4.8,19.6,12,0,4-3.8,7.2-7.6,7.2a5.7,5.7,0,0,1-4.8-2.4c-3.8-4.4-9.4-8.8-16-8.8-6.2,0-11.2,3.8-14.2,11-3.6,9.2-4.4,23.8-4.4,33.8v5.8c0,5.4,0,5.6,3.4,5.6h22.8c2.2,2,.8,7.6-1.4,8.4Z" transform="translate(-44.94 -25.22)"/></svg>